<svg width="24" height="16" viewBox="0 0 24 16" fill="none" xmlns="http://www.w3.org/2000/svg">
<path d="M7.64091 6.71675V9.5435H11.9713C11.851 10.6862 10.7082 12.8514 7.64091 12.8514C5.05474 12.8514 2.94971 10.6862 2.94971 8.03991C2.94971 5.39359 4.93445 3.22842 7.52063 3.22842C9.02422 3.22842 10.0467 3.82985 10.588 4.37115L12.693 2.38641C11.6142 1.36269 10.256 0.68192 8.79029 0.430228C7.32455 0.178536 5.81708 0.367227 4.45859 0.972431C3.1001 1.57763 1.95163 2.57216 1.15846 3.83019C0.365295 5.08822 -0.0369313 6.55324 0.00266623 8.03991C0.00266623 12.25 3.43086 15.6782 7.64091 15.6782C12.0915 15.6782 14.9784 12.4905 14.9784 8.1602L14.8582 6.71675" fill="#1D1D1D"/>
<path fill-rule="evenodd" clip-rule="evenodd" d="M21.3236 8.61128V11.2877H19.5794V8.61128H16.903V6.86712H19.5794V4.19072H21.3236V6.86712H24V8.61128H21.3236Z" fill="#1D1D1D"/>
</svg>
