<svg width="18" height="18" viewBox="0 0 18 18" fill="none" xmlns="http://www.w3.org/2000/svg">
<path d="M17.5974 4.32744L17.592 4.30667C17.1577 2.60824 15.2 0.785733 13.4022 0.406573L13.3819 0.402533C10.474 -0.134178 7.52545 -0.134178 4.61811 0.402533L4.59723 0.406573C2.79997 0.785733 0.842259 2.60824 0.40741 4.30667L0.402638 4.32744C-0.134213 6.69936 -0.134213 9.10474 0.402638 11.4767L0.40741 11.4974C0.823708 13.1234 2.63564 14.8621 4.36638 15.3403V17.2363C4.36638 17.9224 5.23071 18.2595 5.72223 17.7643L7.70768 15.7676C8.1383 15.7909 8.56915 15.8039 9 15.8039C10.4638 15.8039 11.9282 15.67 13.3819 15.4016L13.4022 15.3976C15.2 15.0184 17.1577 13.1959 17.592 11.4975L17.5974 11.4767C18.1342 9.10475 18.1342 6.69936 17.5974 4.32744ZM16.0262 11.1327C15.7363 12.2408 14.2498 13.6183 13.0687 13.8728C11.5225 14.1573 9.96412 14.2789 8.40726 14.2371C8.3763 14.2363 8.34653 14.2479 8.32494 14.2694C8.104 14.4888 6.87527 15.7092 6.87527 15.7092L5.33331 17.2402C5.22057 17.3539 5.02253 17.2766 5.02253 17.1196V13.9789C5.02253 13.927 4.98424 13.8829 4.93157 13.8729C4.93127 13.8729 4.93187 13.873 4.93157 13.8729C3.7505 13.6184 2.26372 12.2407 1.97322 11.1326C1.49006 8.98869 1.49006 6.8153 1.97322 4.67134C2.26372 3.5633 3.7496 2.18574 4.93067 1.93123C7.63103 1.43434 10.369 1.43434 13.0687 1.93123C14.2504 2.18574 15.7363 3.5633 16.0262 4.67134C16.5099 6.81536 16.5099 8.98875 16.0262 11.1327Z" fill="#1D1D1D"/>
<path d="M11.5687 12.5824C11.3871 12.5291 11.2141 12.4933 11.0534 12.4288C9.38817 11.7603 7.85563 10.898 6.64169 9.57617C5.95136 8.82449 5.41105 7.97585 4.95431 7.07776C4.73772 6.65186 4.55519 6.20927 4.36914 5.76958C4.19949 5.3686 4.44937 4.95435 4.71248 4.65224C4.95938 4.36871 5.27707 4.15171 5.62114 3.9918C5.88968 3.86697 6.15459 3.93894 6.35072 4.15916C6.77471 4.63527 7.16417 5.13574 7.47954 5.68763C7.67346 6.02708 7.62025 6.44202 7.26879 6.67304C7.18338 6.72919 7.10553 6.79509 7.02596 6.85852C6.95617 6.91409 6.89049 6.97025 6.84265 7.0455C6.75521 7.1832 6.75103 7.3456 6.80734 7.4953C7.24076 8.64766 7.97129 9.54374 9.17014 10.0264C9.36198 10.1036 9.55465 10.1935 9.77565 10.1686C10.1458 10.1267 10.2656 9.73395 10.525 9.52873C10.7785 9.32819 11.1025 9.32553 11.3755 9.49272C11.6487 9.65997 11.9135 9.83951 12.1766 10.0209C12.435 10.199 12.6922 10.3733 12.9305 10.5763C13.1596 10.7715 13.2385 11.0277 13.1095 11.2926C12.8733 11.7778 12.5296 12.1815 12.0338 12.4392C11.8938 12.5119 11.7266 12.5354 11.5687 12.5824C11.7266 12.5354 11.3871 12.5291 11.5687 12.5824Z" fill="#1D1D1D"/>
<path d="M9.00418 3.43699C11.1823 3.49602 12.9712 4.89453 13.3546 6.9779C13.4199 7.33288 13.4432 7.69582 13.4722 8.05611C13.4845 8.20766 13.3958 8.35165 13.2267 8.35361C13.0521 8.35563 12.9736 8.2143 12.9622 8.06281C12.9398 7.76294 12.9242 7.46175 12.8815 7.16436C12.6561 5.59457 11.3623 4.29584 9.74723 4.01715C9.50422 3.9752 9.25548 3.96418 9.00931 3.93919C8.85368 3.92337 8.64985 3.91426 8.61538 3.7271C8.58645 3.57018 8.72334 3.44524 8.87778 3.43722C8.91977 3.43497 8.962 3.43681 9.00418 3.43699C11.1823 3.49602 8.962 3.43681 9.00418 3.43699Z" fill="#1D1D1D"/>
<path d="M12.3141 7.58844C12.3105 7.61476 12.3086 7.67662 12.2927 7.73491C12.2349 7.94648 11.9033 7.97297 11.827 7.75944C11.8044 7.69607 11.801 7.62399 11.8008 7.55578C11.8001 7.10944 11.6998 6.66356 11.4672 6.27523C11.228 5.8761 10.8627 5.54057 10.4342 5.33754C10.175 5.21479 9.89481 5.13849 9.61081 5.09302C9.48668 5.07317 9.36124 5.0611 9.23651 5.04431C9.08536 5.02399 9.00465 4.93079 9.01181 4.78669C9.01849 4.65164 9.12049 4.55452 9.2726 4.56283C9.77247 4.5903 10.2553 4.69481 10.6997 4.92248C11.6033 5.3855 12.1196 6.11635 12.2702 7.09224C12.277 7.13645 12.288 7.18025 12.2915 7.22463C12.3 7.33422 12.3054 7.44393 12.3141 7.58844C12.3105 7.61476 12.3054 7.44393 12.3141 7.58844Z" fill="#1D1D1D"/>
<path d="M10.9595 7.5374C10.7772 7.54058 10.6797 7.44299 10.6609 7.28134C10.6479 7.16863 10.6375 7.05442 10.6097 6.94477C10.555 6.72881 10.4363 6.52867 10.2486 6.39634C10.1599 6.33384 10.0595 6.28831 9.95425 6.25893C9.82057 6.22159 9.68176 6.23186 9.54838 6.20024C9.40355 6.1659 9.32344 6.05244 9.34623 5.92098C9.36693 5.80134 9.48724 5.70796 9.62235 5.71743C10.4668 5.77641 11.0704 6.1988 11.1565 7.16061C11.1626 7.22848 11.1697 7.30021 11.1542 7.36514C11.1275 7.47629 11.0425 7.53198 10.9595 7.5374C11.0425 7.53198 10.7772 7.54058 10.9595 7.5374Z" fill="#1D1D1D"/>
</svg>
