<svg width="111" height="29" viewBox="0 0 111 29" fill="none" xmlns="http://www.w3.org/2000/svg">
<path fill-rule="evenodd" clip-rule="evenodd" d="M20.1556 4.01144C20.1536 4.01119 20.1295 4.00819 20.0766 4.02105L2.47352 8.30625C1.40029 8.56751 0.318473 7.90928 0.0572133 6.83605C-0.204046 5.76282 0.454183 4.68101 1.52741 4.41975L19.1305 0.134553C23.5568 -0.942939 26.0583 4.72251 22.7219 7.44923L6.95294 20.3362C6.9076 20.3733 6.89671 20.4001 6.89115 20.4185C6.88284 20.446 6.87907 20.4892 6.89187 20.5398C6.90469 20.5903 6.9275 20.6224 6.9427 20.6374C6.95074 20.6453 6.96563 20.6597 7.01601 20.6688L25.8164 24.0424C26.9036 24.2375 27.6268 25.277 27.4317 26.3642C27.2366 27.4514 26.1971 28.1746 25.1099 27.9795L6.30951 24.6059C2.77318 23.9713 1.68814 19.473 4.42174 17.239L20.1906 4.35197C20.2362 4.31474 20.2525 4.28927 20.2572 4.28128C20.2623 4.27257 20.2649 4.26536 20.2665 4.25607C20.2708 4.23263 20.2704 4.17736 20.2377 4.10979C20.2048 4.04203 20.166 4.01614 20.1588 4.01237C20.1588 4.01237 20.1577 4.0117 20.1556 4.01144ZM26.7166 2.61621C27.6246 1.98716 28.8706 2.21326 29.4996 3.12122L33.2477 8.53122C35.2568 11.4311 32.9889 15.5003 29.3687 15.0812L27.4937 14.8641C27.4391 14.8578 27.4138 14.8644 27.4138 14.8644C27.4113 14.865 27.411 14.8651 27.4088 14.8667C27.4002 14.8726 27.3635 14.9051 27.3385 14.9782C27.3136 15.0512 27.3205 15.1065 27.3272 15.1282C27.3298 15.1366 27.3328 15.1425 27.3382 15.1495C27.3431 15.1558 27.3614 15.1783 27.4104 15.2089L30.3761 17.065C31.3124 17.651 31.5964 18.885 31.0104 19.8213C30.4244 20.7577 29.1903 21.0417 28.254 20.4557L25.2884 18.5996C21.6099 16.2974 23.4505 10.3693 27.9537 10.8906L29.8287 11.1077C29.8774 11.1133 29.8933 11.1046 29.8992 11.1014C29.9137 11.0937 29.9425 11.0721 29.9674 11.0296C29.9923 10.9871 30.0009 10.9454 30.0004 10.9155C30.0001 10.8949 29.9965 10.8623 29.9597 10.8092L26.2116 5.39918C25.5826 4.49123 25.8087 3.24525 26.7166 2.61621Z" fill="#E3E3E3"/>
<path d="M45.5864 20.035H51.48V22.8294H41.9989V5.25736H45.5864V20.035Z" fill="#E3E3E3"/>
<path d="M62.0626 23.0056C60.3885 23.0056 58.851 22.6196 57.4502 21.8476C56.0494 21.0755 54.939 20.0098 54.119 18.6504C53.299 17.2741 52.889 15.7217 52.889 13.993C52.889 12.2811 53.299 10.7455 54.119 9.38603C54.939 8.00981 56.0494 6.93568 57.4502 6.16366C58.851 5.39163 60.3885 5.00562 62.0626 5.00562C63.7538 5.00562 65.2913 5.39163 66.675 6.16366C68.0759 6.93568 69.1777 8.00981 69.9806 9.38603C70.8006 10.7455 71.2106 12.2811 71.2106 13.993C71.2106 15.7217 70.8006 17.2741 69.9806 18.6504C69.1777 20.0098 68.0759 21.0755 66.675 21.8476C65.2742 22.6196 63.7368 23.0056 62.0626 23.0056ZM62.0626 19.8588C63.1388 19.8588 64.087 19.6238 64.9069 19.1539C65.7269 18.6672 66.3675 17.979 66.8288 17.0895C67.29 16.2 67.5207 15.1679 67.5207 13.993C67.5207 12.8182 67.29 11.7944 66.8288 10.9217C66.3675 10.0322 65.7269 9.35247 64.9069 8.88254C64.087 8.41261 63.1388 8.17764 62.0626 8.17764C60.9864 8.17764 60.0297 8.41261 59.1926 8.88254C58.3727 9.35247 57.732 10.0322 57.2708 10.9217C56.8096 11.7944 56.5789 12.8182 56.5789 13.993C56.5789 15.1679 56.8096 16.2 57.2708 17.0895C57.732 17.979 58.3727 18.6672 59.1926 19.1539C60.0297 19.6238 60.9864 19.8588 62.0626 19.8588Z" fill="#E3E3E3"/>
<path d="M86.3332 10.5441C85.9232 9.80562 85.3594 9.24338 84.6419 8.85736C83.9244 8.47135 83.0874 8.27834 82.1307 8.27834C81.0716 8.27834 80.132 8.51331 79.312 8.98324C78.492 9.45317 77.8514 10.1245 77.3902 10.9972C76.9289 11.87 76.6983 12.8769 76.6983 14.0182C76.6983 15.193 76.9289 16.2168 77.3902 17.0895C77.8685 17.9623 78.5262 18.6336 79.3633 19.1035C80.2003 19.5734 81.1741 19.8084 82.2845 19.8084C83.6511 19.8084 84.7701 19.456 85.6413 18.7511C86.5125 18.0294 87.0848 17.0308 87.3581 15.7553H81.2082V13.0616H90.8943V16.1329C90.6552 17.3581 90.1427 18.4909 89.3569 19.5315C88.571 20.572 87.5546 21.4112 86.3075 22.049C85.0776 22.67 83.6938 22.9804 82.1563 22.9804C80.431 22.9804 78.8678 22.6028 77.467 21.8476C76.0833 21.0755 74.99 20.0098 74.1871 18.6504C73.4013 17.2909 73.0083 15.7469 73.0083 14.0182C73.0083 12.2895 73.4013 10.7455 74.1871 9.38603C74.99 8.00981 76.0833 6.94408 77.467 6.18883C78.8678 5.4168 80.4224 5.03079 82.1307 5.03079C84.1465 5.03079 85.8975 5.5175 87.3838 6.49093C88.87 7.44757 89.895 8.79862 90.4587 10.5441H86.3332Z" fill="#E3E3E3"/>
<path d="M101.851 23.0056C100.177 23.0056 98.6393 22.6196 97.2385 21.8476C95.8376 21.0755 94.7272 20.0098 93.9072 18.6504C93.0873 17.2741 92.6773 15.7217 92.6773 13.993C92.6773 12.2811 93.0873 10.7455 93.9072 9.38603C94.7272 8.00981 95.8376 6.93568 97.2385 6.16366C98.6393 5.39163 100.177 5.00562 101.851 5.00562C103.542 5.00562 105.08 5.39163 106.463 6.16366C107.864 6.93568 108.966 8.00981 109.769 9.38603C110.589 10.7455 110.999 12.2811 110.999 13.993C110.999 15.7217 110.589 17.2741 109.769 18.6504C108.966 20.0098 107.864 21.0755 106.463 21.8476C105.063 22.6196 103.525 23.0056 101.851 23.0056ZM101.851 19.8588C102.927 19.8588 103.875 19.6238 104.695 19.1539C105.515 18.6672 106.156 17.979 106.617 17.0895C107.078 16.2 107.309 15.1679 107.309 13.993C107.309 12.8182 107.078 11.7944 106.617 10.9217C106.156 10.0322 105.515 9.35247 104.695 8.88254C103.875 8.41261 102.927 8.17764 101.851 8.17764C100.775 8.17764 99.818 8.41261 98.9809 8.88254C98.1609 9.35247 97.5203 10.0322 97.0591 10.9217C96.5978 11.7944 96.3672 12.8182 96.3672 13.993C96.3672 15.1679 96.5978 16.2 97.0591 17.0895C97.5203 17.979 98.1609 18.6672 98.9809 19.1539C99.818 19.6238 100.775 19.8588 101.851 19.8588Z" fill="#E3E3E3"/>
</svg>
