<svg width="90" height="29" viewBox="0 0 90 29" fill="none" xmlns="http://www.w3.org/2000/svg">
<path d="M9.07061 13.9637C9.90564 13.9637 10.5826 14.6476 10.5826 15.4912V23.1288C10.5826 23.9724 9.90564 24.6563 9.07061 24.6563H1.51085C0.675825 24.6563 -0.00109867 23.9724 -0.00109863 23.1288L-0.0010983 15.4912C-0.00109827 14.6476 0.675826 13.9637 1.51085 13.9637H9.07061Z" fill="#E3E3E3"/>
<path d="M12.8505 20.6329C12.433 19.9023 12.6807 18.9681 13.4039 18.5463L19.9508 14.7275C20.674 14.3057 21.5987 14.556 22.0162 15.2866L25.7961 21.9009C26.2136 22.6315 25.9658 23.5657 25.2427 23.9875L18.6957 27.8063C17.9726 28.2281 17.0479 27.9778 16.6304 27.2472L12.8505 20.6329Z" fill="#E3E3E3"/>
<path d="M8.11207 9.47619C7.38892 9.05438 7.14115 8.12017 7.55866 7.38957L11.3385 0.775242C11.7561 0.0446438 12.6807 -0.205678 13.4039 0.216134L19.9508 4.03492C20.674 4.45673 20.9218 5.39094 20.5043 6.12154L16.7244 12.7359C16.3069 13.4665 15.3822 13.7168 14.659 13.295L8.11207 9.47619Z" fill="#E3E3E3"/>
<path d="M34.5389 21.0113C34.3922 21.0113 34.2656 20.9579 34.1589 20.8513C34.0522 20.7446 33.9989 20.6179 33.9989 20.4713V7.55128C33.9989 7.40461 34.0522 7.27795 34.1589 7.17128C34.2656 7.06461 34.3922 7.01128 34.5389 7.01128H38.5389C38.6856 7.01128 38.8122 7.06461 38.9189 7.17128C39.0256 7.27795 39.0789 7.40461 39.0789 7.55128V16.9113H44.6189C44.7656 16.9113 44.8922 16.9646 44.9989 17.0713C45.1056 17.1779 45.1589 17.3046 45.1589 17.4513V20.4713C45.1589 20.6179 45.1056 20.7446 44.9989 20.8513C44.8922 20.9579 44.7656 21.0113 44.6189 21.0113H34.5389Z" fill="#E3E3E3"/>
<path d="M52.7017 21.2113C51.395 21.2113 50.2484 21.0113 49.2617 20.6113C48.2884 20.2113 47.515 19.6113 46.9417 18.8113C46.3817 17.9979 46.075 16.9979 46.0217 15.8113C46.0084 15.2646 46.0017 14.6846 46.0017 14.0713C46.0017 13.4579 46.0084 12.8646 46.0217 12.2913C46.075 11.1179 46.3817 10.1246 46.9417 9.31128C47.5017 8.49795 48.275 7.87795 49.2617 7.45128C50.2484 7.02461 51.395 6.81128 52.7017 6.81128C54.0084 6.81128 55.155 7.02461 56.1417 7.45128C57.1284 7.87795 57.9017 8.49795 58.4617 9.31128C59.035 10.1246 59.3417 11.1179 59.3817 12.2913C59.4084 12.8646 59.4217 13.4579 59.4217 14.0713C59.4217 14.6846 59.4084 15.2646 59.3817 15.8113C59.3284 16.9979 59.015 17.9979 58.4417 18.8113C57.8817 19.6113 57.1084 20.2113 56.1217 20.6113C55.1484 21.0113 54.0084 21.2113 52.7017 21.2113ZM52.7017 17.3113C53.1417 17.3113 53.495 17.1846 53.7617 16.9313C54.0284 16.6646 54.1684 16.2513 54.1817 15.6913C54.2084 15.1179 54.2217 14.5513 54.2217 13.9913C54.2217 13.4313 54.2084 12.8779 54.1817 12.3313C54.1684 11.9579 54.095 11.6513 53.9617 11.4113C53.8417 11.1713 53.675 10.9979 53.4617 10.8913C53.2484 10.7713 52.995 10.7113 52.7017 10.7113C52.4217 10.7113 52.1684 10.7713 51.9417 10.8913C51.7284 10.9979 51.555 11.1713 51.4217 11.4113C51.3017 11.6513 51.235 11.9579 51.2217 12.3313C51.2084 12.8779 51.2017 13.4313 51.2017 13.9913C51.2017 14.5513 51.2084 15.1179 51.2217 15.6913C51.2484 16.2513 51.3884 16.6646 51.6417 16.9313C51.9084 17.1846 52.2617 17.3113 52.7017 17.3113Z" fill="#E3E3E3"/>
<path d="M67.6055 21.2113C66.2588 21.2113 65.0921 21.0113 64.1055 20.6113C63.1188 20.2113 62.3455 19.6046 61.7855 18.7913C61.2255 17.9779 60.9188 16.9513 60.8655 15.7113C60.8521 15.1646 60.8455 14.5713 60.8455 13.9313C60.8455 13.2913 60.8521 12.6846 60.8655 12.1113C60.9188 10.9246 61.2255 9.94461 61.7855 9.17128C62.3588 8.38461 63.1455 7.79795 64.1455 7.41128C65.1455 7.01128 66.2988 6.81128 67.6055 6.81128C68.6588 6.81128 69.6055 6.93128 70.4455 7.17128C71.2855 7.39795 72.0055 7.71795 72.6055 8.13128C73.2055 8.54461 73.6655 9.02461 73.9855 9.57128C74.3055 10.1046 74.4721 10.6713 74.4855 11.2713C74.4855 11.3913 74.4388 11.4979 74.3455 11.5913C74.2655 11.6713 74.1655 11.7113 74.0455 11.7113H69.6255C69.4788 11.7113 69.3588 11.6913 69.2655 11.6513C69.1855 11.6113 69.1121 11.5579 69.0455 11.4913C68.9921 11.4246 68.9121 11.3313 68.8055 11.2113C68.7121 11.0779 68.5721 10.9646 68.3855 10.8713C68.1988 10.7646 67.9388 10.7113 67.6055 10.7113C67.1121 10.7113 66.7388 10.8379 66.4855 11.0913C66.2321 11.3313 66.0921 11.7046 66.0655 12.2113C66.0255 13.3179 66.0255 14.4513 66.0655 15.6113C66.0921 16.2113 66.2455 16.6446 66.5255 16.9113C66.8055 17.1779 67.1921 17.3113 67.6855 17.3113C68.0188 17.3113 68.3121 17.2646 68.5655 17.1713C68.8188 17.0779 69.0188 16.9246 69.1655 16.7113C69.3121 16.4979 69.3855 16.2246 69.3855 15.8913V15.8713H68.4455C68.2988 15.8713 68.1721 15.8179 68.0655 15.7113C67.9588 15.6046 67.9055 15.4779 67.9055 15.3313V13.1113C67.9055 12.9646 67.9588 12.8379 68.0655 12.7313C68.1721 12.6246 68.2988 12.5713 68.4455 12.5713H73.9455C74.0921 12.5713 74.2188 12.6246 74.3255 12.7313C74.4321 12.8379 74.4855 12.9646 74.4855 13.1113V15.7113C74.4855 16.9113 74.1921 17.9179 73.6055 18.7313C73.0188 19.5446 72.2055 20.1646 71.1655 20.5913C70.1388 21.0046 68.9521 21.2113 67.6055 21.2113Z" fill="#E3E3E3"/>
<path d="M82.6041 21.2113C81.2974 21.2113 80.1507 21.0113 79.1641 20.6113C78.1907 20.2113 77.4174 19.6113 76.8441 18.8113C76.2841 17.9979 75.9774 16.9979 75.9241 15.8113C75.9107 15.2646 75.9041 14.6846 75.9041 14.0713C75.9041 13.4579 75.9107 12.8646 75.9241 12.2913C75.9774 11.1179 76.2841 10.1246 76.8441 9.31128C77.4041 8.49795 78.1774 7.87795 79.1641 7.45128C80.1507 7.02461 81.2974 6.81128 82.6041 6.81128C83.9107 6.81128 85.0574 7.02461 86.0441 7.45128C87.0307 7.87795 87.8041 8.49795 88.3641 9.31128C88.9374 10.1246 89.2441 11.1179 89.2841 12.2913C89.3107 12.8646 89.3241 13.4579 89.3241 14.0713C89.3241 14.6846 89.3107 15.2646 89.2841 15.8113C89.2307 16.9979 88.9174 17.9979 88.3441 18.8113C87.7841 19.6113 87.0107 20.2113 86.0241 20.6113C85.0507 21.0113 83.9107 21.2113 82.6041 21.2113ZM82.6041 17.3113C83.0441 17.3113 83.3974 17.1846 83.6641 16.9313C83.9307 16.6646 84.0707 16.2513 84.0841 15.6913C84.1107 15.1179 84.1241 14.5513 84.1241 13.9913C84.1241 13.4313 84.1107 12.8779 84.0841 12.3313C84.0707 11.9579 83.9974 11.6513 83.8641 11.4113C83.7441 11.1713 83.5774 10.9979 83.3641 10.8913C83.1507 10.7713 82.8974 10.7113 82.6041 10.7113C82.3241 10.7113 82.0707 10.7713 81.8441 10.8913C81.6307 10.9979 81.4574 11.1713 81.3241 11.4113C81.2041 11.6513 81.1374 11.9579 81.1241 12.3313C81.1107 12.8779 81.1041 13.4313 81.1041 13.9913C81.1041 14.5513 81.1107 15.1179 81.1241 15.6913C81.1507 16.2513 81.2907 16.6646 81.5441 16.9313C81.8107 17.1846 82.1641 17.3113 82.6041 17.3113Z" fill="#E3E3E3"/>
</svg>
