<svg width="102" height="29" viewBox="0 0 102 29" fill="none" xmlns="http://www.w3.org/2000/svg">
<path fill-rule="evenodd" clip-rule="evenodd" d="M15.3888 15.4366C17.6406 14.9996 19.6302 14.7201 21.3826 14.579C21.8393 12.8072 22.2432 11.2686 22.5926 9.93772C22.6903 9.56534 22.7838 9.20922 22.873 8.8688C20.966 10.6764 18.4889 12.9385 15.3888 15.4366ZM27.24 4.7974C27.2399 4.79747 27.2377 4.79892 27.2332 4.8015C27.2377 4.79862 27.24 4.79733 27.24 4.7974ZM26.5286 14.6124C26.8098 13.5304 27.0741 12.5242 27.3186 11.5931C28.2378 8.09275 28.8784 5.65375 29.0931 4.23555C29.1658 3.75556 29.2359 3.13178 29.1551 2.53638C29.114 2.23398 29.0083 1.72571 28.6683 1.22188C28.2704 0.632145 27.6377 0.184066 26.8572 0.0510004C26.1868 -0.0632973 25.6318 0.0936746 25.3234 0.20845C24.9943 0.330886 24.7162 0.492587 24.5109 0.625659C24.1019 0.890683 23.6851 1.23862 23.3 1.58064C22.7065 2.10761 21.9866 2.80146 21.1241 3.63277C17.4996 7.12612 11.3566 13.0468 1.49539 19.2114C0.430362 19.8772 0.0273982 21.2297 0.554836 22.3683C1.08227 23.507 2.37554 24.0764 3.57346 23.6975C11.1002 21.3167 16.5689 20.129 20.4608 19.6749C20.355 20.9614 20.3864 22.0929 20.5516 23.0779C20.9186 25.265 22.0552 27.1214 24.1447 27.781C26.0043 28.3681 27.8475 27.7355 29.1332 26.9684C30.477 26.1666 31.7 24.9441 32.4716 23.5402C33.2284 22.1632 33.7418 20.2155 32.8595 18.3024C31.9642 16.361 30.0131 15.2772 27.6853 14.7997C27.3217 14.7251 26.9365 14.6625 26.5286 14.6124ZM25.4922 19.511C25.3477 20.7416 25.3697 21.6348 25.4738 22.2548C25.5475 22.6945 25.6421 22.9188 25.7058 23.0242C25.8268 23.0148 26.115 22.9649 26.5729 22.6917C27.2021 22.3163 27.7771 21.7242 28.0962 21.1435C28.2503 20.8633 28.3104 20.6484 28.3266 20.5158C28.3343 20.4532 28.3315 20.4164 28.3294 20.4009C28.3283 20.3931 28.3272 20.3891 28.3269 20.3879L28.3262 20.386C28.3262 20.3859 28.326 20.3855 28.3256 20.3849C28.3249 20.3835 28.3234 20.3808 28.3207 20.3767C28.3167 20.3707 28.3087 20.3595 28.2945 20.3437C28.2666 20.3126 28.2074 20.2556 28.0956 20.1833C27.8648 20.034 27.431 19.834 26.6808 19.6801C26.3304 19.6082 25.9353 19.5508 25.4922 19.511ZM25.7765 23.1055C25.7748 23.1088 25.7592 23.0994 25.7351 23.0678C25.7662 23.0865 25.7783 23.1023 25.7765 23.1055Z" fill="#E3E3E3"/>
<path d="M41.3241 21.3313V6.73126H45.0441V21.3313H41.3241ZM44.6441 21.3313V18.0913H50.5641V21.3313H44.6441Z" fill="#E3E3E3"/>
<path d="M59.402 21.7313C58.0687 21.7313 56.9087 21.5046 55.922 21.0513C54.9354 20.5846 54.1154 19.9779 53.462 19.2313C52.8087 18.4713 52.322 17.6513 52.002 16.7713C51.682 15.8913 51.522 15.0379 51.522 14.2113V13.7713C51.522 12.8513 51.6887 11.9513 52.022 11.0713C52.3554 10.1779 52.8554 9.37126 53.522 8.65126C54.1887 7.93126 55.0087 7.35793 55.982 6.93126C56.9687 6.50459 58.1087 6.29126 59.402 6.29126C60.682 6.29126 61.8087 6.50459 62.782 6.93126C63.7687 7.35793 64.5954 7.93126 65.262 8.65126C65.9287 9.37126 66.4287 10.1779 66.762 11.0713C67.1087 11.9513 67.282 12.8513 67.282 13.7713V14.2113C67.282 15.0379 67.1154 15.8913 66.782 16.7713C66.462 17.6513 65.9754 18.4713 65.322 19.2313C64.6687 19.9779 63.8487 20.5846 62.862 21.0513C61.8754 21.5046 60.722 21.7313 59.402 21.7313ZM59.402 18.2513C60.042 18.2513 60.6154 18.1446 61.122 17.9313C61.6287 17.7179 62.062 17.4179 62.422 17.0313C62.782 16.6446 63.0554 16.1979 63.242 15.6913C63.4287 15.1713 63.522 14.6113 63.522 14.0113C63.522 13.3713 63.422 12.7913 63.222 12.2713C63.0354 11.7513 62.762 11.3046 62.402 10.9313C62.042 10.5579 61.6087 10.2713 61.102 10.0713C60.5954 9.87126 60.0287 9.77126 59.402 9.77126C58.762 9.77126 58.1887 9.87126 57.682 10.0713C57.1754 10.2713 56.742 10.5579 56.382 10.9313C56.022 11.3046 55.7487 11.7513 55.562 12.2713C55.3754 12.7913 55.282 13.3713 55.282 14.0113C55.282 14.6113 55.3754 15.1713 55.562 15.6913C55.7487 16.1979 56.022 16.6446 56.382 17.0313C56.742 17.4179 57.1754 17.7179 57.682 17.9313C58.1887 18.1446 58.762 18.2513 59.402 18.2513Z" fill="#E3E3E3"/>
<path d="M76.5872 21.7313C75.2139 21.7313 74.0339 21.5046 73.0472 21.0513C72.0605 20.5846 71.2539 19.9779 70.6272 19.2313C70.0005 18.4846 69.5405 17.6713 69.2472 16.7913C68.9539 15.9113 68.8072 15.0513 68.8072 14.2113V13.7713C68.8072 12.8646 68.9605 11.9713 69.2672 11.0913C69.5739 10.1979 70.0339 9.39126 70.6472 8.67126C71.2739 7.95126 72.0539 7.37793 72.9872 6.95126C73.9205 6.51126 75.0139 6.29126 76.2672 6.29126C77.6139 6.29126 78.8005 6.53793 79.8272 7.03126C80.8672 7.52459 81.7005 8.21126 82.3272 9.09126C82.9539 9.95793 83.3205 10.9646 83.4272 12.1113H79.7072C79.6272 11.6713 79.4339 11.2779 79.1272 10.9313C78.8205 10.5713 78.4205 10.2913 77.9272 10.0913C77.4472 9.87793 76.8939 9.77126 76.2672 9.77126C75.6672 9.77126 75.1339 9.87793 74.6672 10.0913C74.2139 10.2913 73.8272 10.5846 73.5072 10.9713C73.2005 11.3446 72.9672 11.7913 72.8072 12.3113C72.6472 12.8313 72.5672 13.3979 72.5672 14.0113C72.5672 14.6246 72.6539 15.1979 72.8272 15.7313C73.0005 16.2513 73.2539 16.7113 73.5872 17.1113C73.9205 17.4979 74.3405 17.7979 74.8472 18.0113C75.3539 18.2246 75.9339 18.3313 76.5872 18.3313C77.4139 18.3313 78.1272 18.1579 78.7272 17.8113C79.3272 17.4646 79.7472 17.0046 79.9872 16.4313L79.7072 18.6313V15.4513H83.1072V18.4513C82.4939 19.5046 81.6205 20.3179 80.4872 20.8913C79.3672 21.4513 78.0672 21.7313 76.5872 21.7313ZM76.1872 16.1713V13.5713H84.3072V16.1713H76.1872Z" fill="#E3E3E3"/>
<path d="M93.3083 21.7313C91.975 21.7313 90.815 21.5046 89.8283 21.0513C88.8416 20.5846 88.0216 19.9779 87.3683 19.2313C86.715 18.4713 86.2283 17.6513 85.9083 16.7713C85.5883 15.8913 85.4283 15.0379 85.4283 14.2113V13.7713C85.4283 12.8513 85.595 11.9513 85.9283 11.0713C86.2616 10.1779 86.7616 9.37126 87.4283 8.65126C88.095 7.93126 88.915 7.35793 89.8883 6.93126C90.875 6.50459 92.0149 6.29126 93.3083 6.29126C94.5883 6.29126 95.715 6.50459 96.6883 6.93126C97.675 7.35793 98.5016 7.93126 99.1683 8.65126C99.835 9.37126 100.335 10.1779 100.668 11.0713C101.015 11.9513 101.188 12.8513 101.188 13.7713V14.2113C101.188 15.0379 101.022 15.8913 100.688 16.7713C100.368 17.6513 99.8816 18.4713 99.2283 19.2313C98.575 19.9779 97.755 20.5846 96.7683 21.0513C95.7816 21.5046 94.6283 21.7313 93.3083 21.7313ZM93.3083 18.2513C93.9483 18.2513 94.5216 18.1446 95.0283 17.9313C95.535 17.7179 95.9683 17.4179 96.3283 17.0313C96.6883 16.6446 96.9616 16.1979 97.1483 15.6913C97.335 15.1713 97.4283 14.6113 97.4283 14.0113C97.4283 13.3713 97.3283 12.7913 97.1283 12.2713C96.9416 11.7513 96.6683 11.3046 96.3083 10.9313C95.9483 10.5579 95.515 10.2713 95.0083 10.0713C94.5016 9.87126 93.935 9.77126 93.3083 9.77126C92.6683 9.77126 92.095 9.87126 91.5883 10.0713C91.0816 10.2713 90.6483 10.5579 90.2883 10.9313C89.9283 11.3046 89.655 11.7513 89.4683 12.2713C89.2816 12.7913 89.1883 13.3713 89.1883 14.0113C89.1883 14.6113 89.2816 15.1713 89.4683 15.6913C89.655 16.1979 89.9283 16.6446 90.2883 17.0313C90.6483 17.4179 91.0816 17.7179 91.5883 17.9313C92.095 18.1446 92.6683 18.2513 93.3083 18.2513Z" fill="#E3E3E3"/>
</svg>
