<svg width="100" height="25" viewBox="0 0 100 25" fill="none" xmlns="http://www.w3.org/2000/svg">
<path d="M0.188293 23.8115V0.17764H7.1776V18.1527H18.7189V23.8115H0.188293Z" fill="#E3E3E3"/>
<path d="M32.3094 24.0112C30.3739 24.0112 28.6176 23.6784 27.0405 23.0126C25.4635 22.3247 24.1015 21.4148 22.9545 20.2831C21.8314 19.1291 20.9593 17.842 20.338 16.4218C19.7406 14.9793 19.4419 13.4925 19.4419 11.9613C19.4419 10.3857 19.7645 8.88777 20.4097 7.46752C21.0548 6.04727 21.9509 4.78236 23.0979 3.67279C24.2687 2.54103 25.6427 1.65337 27.2198 1.00982C28.8207 0.366267 30.5651 0.0444911 32.4528 0.0444911C34.3883 0.0444911 36.1446 0.388458 37.7216 1.07639C39.2987 1.74214 40.6488 2.65198 41.7718 3.80594C42.8949 4.95989 43.7551 6.25809 44.3525 7.70053C44.9738 9.12078 45.2844 10.5854 45.2844 12.0944C45.2844 13.6478 44.9618 15.1347 44.3167 16.5549C43.6954 17.9752 42.7993 19.2512 41.6285 20.3829C40.4815 21.4925 39.1195 22.3802 37.5424 23.0459C35.9653 23.6895 34.221 24.0112 32.3094 24.0112ZM26.5387 12.0279C26.5387 12.8268 26.6582 13.6035 26.8972 14.358C27.1361 15.0903 27.4946 15.756 27.9725 16.3552C28.4504 16.9322 29.0477 17.3982 29.7646 17.7533C30.5053 18.0861 31.3775 18.2526 32.3811 18.2526C33.3847 18.2526 34.2568 18.075 34.9976 17.72C35.7383 17.3649 36.3357 16.8878 36.7897 16.2886C37.2676 15.6673 37.6141 14.9904 37.8292 14.2581C38.0681 13.5036 38.1876 12.738 38.1876 11.9613C38.1876 11.1624 38.0681 10.3968 37.8292 9.66447C37.5902 8.93216 37.2318 8.27751 36.7539 7.70053C36.276 7.10136 35.6667 6.63534 34.9259 6.30247C34.1852 5.9696 33.3249 5.80317 32.3452 5.80317C31.3417 5.80317 30.4695 5.9807 29.7287 6.33576C29.0119 6.69082 28.4145 7.16794 27.9366 7.76711C27.4587 8.34408 27.1003 9.00983 26.8613 9.76434C26.6463 10.4967 26.5387 11.2512 26.5387 12.0279Z" fill="#E3E3E3"/>
<path d="M86.2133 24.0112C84.2778 24.0112 82.5215 23.6784 80.9444 23.0126C79.3673 22.3247 78.0053 21.4148 76.8584 20.2831C75.7353 19.1291 74.8631 17.842 74.2419 16.4218C73.6445 14.9793 73.3458 13.4925 73.3458 11.9613C73.3458 10.3857 73.6684 8.88777 74.3135 7.46752C74.9587 6.04727 75.8548 4.78236 77.0017 3.67279C78.1726 2.54103 79.5466 1.65337 81.1236 1.00982C82.7246 0.366267 84.4689 0.0444911 86.3566 0.0444911C88.2921 0.0444911 90.0484 0.388458 91.6255 1.07639C93.2026 1.74214 94.5527 2.65198 95.6757 3.80594C96.7988 4.95989 97.659 6.25809 98.2564 7.70053C98.8776 9.12078 99.1883 10.5854 99.1883 12.0944C99.1883 13.6478 98.8657 15.1347 98.2205 16.5549C97.5993 17.9752 96.7032 19.2512 95.5324 20.3829C94.3854 21.4925 93.0234 22.3802 91.4463 23.0459C89.8692 23.6895 88.1249 24.0112 86.2133 24.0112ZM80.4426 12.0279C80.4426 12.8268 80.5621 13.6035 80.801 14.358C81.04 15.0903 81.3984 15.756 81.8763 16.3552C82.3542 16.9322 82.9516 17.3982 83.6684 17.7533C84.4092 18.0861 85.2814 18.2526 86.285 18.2526C87.2886 18.2526 88.1607 18.075 88.9015 17.72C89.6422 17.3649 90.2396 16.8878 90.6936 16.2886C91.1715 15.6673 91.518 14.9904 91.733 14.2581C91.972 13.5036 92.0915 12.738 92.0915 11.9613C92.0915 11.1624 91.972 10.3968 91.733 9.66447C91.4941 8.93216 91.1357 8.27751 90.6578 7.70053C90.1799 7.10136 89.5705 6.63534 88.8298 6.30247C88.089 5.9696 87.2288 5.80317 86.2491 5.80317C85.2455 5.80317 84.3734 5.9807 83.6326 6.33576C82.9158 6.69082 82.3184 7.16794 81.8405 7.76711C81.3626 8.34408 81.0042 9.00983 80.7652 9.76434C80.5501 10.4967 80.4426 11.2512 80.4426 12.0279Z" fill="#E3E3E3"/>
<path d="M58.9279 23.978C60.5767 23.978 62.1537 23.7117 63.6591 23.1791C65.1406 22.6243 66.4548 21.8254 67.6018 20.7824C68.7488 19.7172 69.6568 18.4412 70.3258 16.9544C70.971 15.4454 71.2936 13.7255 71.2936 11.7949C71.2936 10.1305 70.9591 8.58822 70.29 7.16797C69.6209 5.74771 68.701 4.50499 67.5301 3.43981C66.3354 2.35243 64.9494 1.50915 63.3724 0.909984C61.7953 0.310815 60.0868 0.0112305 58.2469 0.0112305C55.953 0.0112305 53.8741 0.47725 52.0103 1.40929C50.1465 2.31914 48.7606 3.57295 47.8525 5.17074L53.0497 8.86561C53.5515 7.93357 54.3042 7.19016 55.3078 6.63537C56.3114 6.05839 57.3747 5.7699 58.4978 5.7699C59.3341 5.7699 60.0988 5.92524 60.7917 6.23593C61.4847 6.54661 62.094 6.97934 62.6197 7.53412C63.1215 8.08891 63.5157 8.75465 63.8025 9.53135C64.0653 10.2859 64.1968 11.118 64.1968 12.0279C64.1968 12.9599 64.0534 13.8032 63.7666 14.5577C63.4799 15.3122 63.0856 15.9669 62.5838 16.5217C62.0582 17.0542 61.4369 17.4759 60.72 17.7866C60.0032 18.0751 59.2027 18.2193 58.3186 18.2193C57.1955 18.2193 56.1202 17.9641 55.0927 17.4537C54.0653 16.9211 53.1333 16.1777 52.297 15.2235V21.548C54.2086 23.168 56.4189 23.978 58.9279 23.978ZM52.6554 15.8892H57.3508V11.229H46.8848V23.8115H52.6554V15.8892Z" fill="#E3E3E3"/>
</svg>
