<svg width="97" height="29" viewBox="0 0 97 29" fill="none" xmlns="http://www.w3.org/2000/svg">
<path d="M24.1883 0.0112305L18.3765 21.518L2.49835 5.77395L24.1883 0.0112305Z" fill="#E3E3E3"/>
<path d="M17.7847 23.8084L2.09091 28.0112L0.188293 13.6527L17.7847 23.8084Z" fill="#E3E3E3"/>
<path d="M32.1883 22.1843L36.2891 5.83815H39.6792L36.3074 19.242H41.2284L40.4993 22.1843H32.1883Z" fill="#E3E3E3"/>
<path d="M50.4593 22.5112C49.0134 22.5112 47.7072 22.1783 46.5407 21.5123C45.3864 20.8463 44.469 19.9443 43.7886 18.8061C43.1203 17.6679 42.7861 16.3966 42.7861 14.992C42.7861 13.7448 43.0474 12.5582 43.5699 11.4322C44.0923 10.294 44.8031 9.28295 45.7023 8.39905C46.6014 7.50304 47.6282 6.80076 48.7825 6.29221C49.9368 5.77156 51.1519 5.51123 52.4277 5.51123C53.8858 5.51123 55.192 5.84421 56.3463 6.51016C57.5006 7.17612 58.4119 8.07818 59.0802 9.21636C59.7606 10.3545 60.1008 11.632 60.1008 13.0486C60.1008 14.2837 59.8396 15.4703 59.3171 16.6085C58.8068 17.7466 58.096 18.7577 57.1847 19.6416C56.2855 20.5255 55.2588 21.2278 54.1045 21.7484C52.9502 22.257 51.7351 22.5112 50.4593 22.5112ZM50.8238 19.351C51.5893 19.351 52.3183 19.1875 53.0109 18.8606C53.7157 18.5337 54.3414 18.0857 54.8882 17.5166C55.435 16.9475 55.8602 16.2997 56.164 15.5732C56.4799 14.8467 56.6379 14.0899 56.6379 13.3029C56.6379 12.419 56.4374 11.632 56.0364 10.9418C55.6476 10.2395 55.1069 9.68858 54.4143 9.28901C53.7339 8.87733 52.9562 8.67149 52.0814 8.67149C51.3159 8.67149 50.5808 8.83495 49.876 9.16187C49.1713 9.48879 48.5456 9.9368 47.9988 10.5059C47.4641 11.0629 47.0389 11.7046 46.723 12.4311C46.407 13.1455 46.2491 13.8962 46.2491 14.6832C46.2491 15.555 46.4496 16.3481 46.8505 17.0625C47.2515 17.7648 47.7983 18.3218 48.4909 18.7335C49.1835 19.1451 49.9611 19.351 50.8238 19.351Z" fill="#E3E3E3"/>
<path d="M69.7845 22.5112C68.3386 22.5112 67.0324 22.1783 65.8659 21.5123C64.7116 20.8463 63.7943 19.9443 63.1138 18.8061C62.4455 17.6679 62.1114 16.3966 62.1114 14.992C62.1114 13.7448 62.3726 12.5582 62.8951 11.4322C63.4176 10.294 64.1284 9.28295 65.0275 8.39905C65.9267 7.50304 66.9534 6.80076 68.1077 6.29221C69.262 5.77156 70.4771 5.51123 71.7529 5.51123C72.8343 5.51123 73.8368 5.69891 74.7602 6.07426C75.6837 6.44962 76.4856 6.97028 77.166 7.63623L75.471 11.1416C75.0944 10.3909 74.5476 9.7915 73.8307 9.3435C73.126 8.89549 72.3179 8.67149 71.4066 8.67149C70.6411 8.67149 69.906 8.83495 69.2013 9.16187C68.4966 9.48879 67.8708 9.9368 67.324 10.5059C66.7894 11.0629 66.3641 11.7046 66.0482 12.4311C65.7323 13.1455 65.5743 13.8962 65.5743 14.6832C65.5743 15.555 65.7748 16.3481 66.1758 17.0625C66.5768 17.7648 67.1235 18.3218 67.8161 18.7335C68.5087 19.1451 69.2864 19.351 70.149 19.351C70.5743 19.351 70.9814 19.3025 71.3702 19.2057C71.7712 19.0967 72.1418 18.9514 72.482 18.7698L73.211 15.7548H69.8757L70.55 13.0305H76.8744L74.9607 20.8948C74.1952 21.4154 73.375 21.815 72.5002 22.0935C71.6254 22.372 70.7201 22.5112 69.7845 22.5112Z" fill="#E3E3E3"/>
<path d="M86.5467 22.5112C85.1008 22.5112 83.7946 22.1783 82.6282 21.5123C81.4738 20.8463 80.5565 19.9443 79.876 18.8061C79.2077 17.6679 78.8736 16.3966 78.8736 14.992C78.8736 13.7448 79.1348 12.5582 79.6573 11.4322C80.1798 10.294 80.8906 9.28295 81.7898 8.39905C82.6889 7.50304 83.7156 6.80076 84.87 6.29221C86.0243 5.77156 87.2393 5.51123 88.5151 5.51123C89.9732 5.51123 91.2794 5.84421 92.4337 6.51016C93.588 7.17612 94.4994 8.07818 95.1676 9.21636C95.8481 10.3545 96.1883 11.632 96.1883 13.0486C96.1883 14.2837 95.9271 15.4703 95.4046 16.6085C94.8942 17.7466 94.1834 18.7577 93.2721 19.6416C92.373 20.5255 91.3463 21.2278 90.1919 21.7484C89.0376 22.257 87.8226 22.5112 86.5467 22.5112ZM86.9113 19.351C87.6768 19.351 88.4058 19.1875 89.0984 18.8606C89.8031 18.5337 90.4289 18.0857 90.9757 17.5166C91.5224 16.9475 91.9477 16.2997 92.2515 15.5732C92.5674 14.8467 92.7254 14.0899 92.7254 13.3029C92.7254 12.419 92.5249 11.632 92.1239 10.9418C91.7351 10.2395 91.1944 9.68858 90.5018 9.28901C89.8213 8.87733 89.0437 8.67149 88.1689 8.67149C87.4034 8.67149 86.6683 8.83495 85.9635 9.16187C85.2588 9.48879 84.633 9.9368 84.0862 10.5059C83.5516 11.0629 83.1263 11.7046 82.8104 12.4311C82.4945 13.1455 82.3365 13.8962 82.3365 14.6832C82.3365 15.555 82.537 16.3481 82.938 17.0625C83.339 17.7648 83.8857 18.3218 84.5783 18.7335C85.2709 19.1451 86.0486 19.351 86.9113 19.351Z" fill="#E3E3E3"/>
</svg>
