<svg width="97" height="29" viewBox="0 0 97 29" fill="none" xmlns="http://www.w3.org/2000/svg">
<path fill-rule="evenodd" clip-rule="evenodd" d="M24.8943 7.24666C26.9983 9.74016 28.4301 12.9165 28.1543 16.5113C27.6419 23.1907 23.0702 27.5813 18.0398 27.9818C15.5743 28.1781 13.0566 27.3971 11.0204 25.5172C10.4754 25.7761 9.94069 25.9732 9.41553 26.1089C7.83095 26.5183 6.31449 26.37 4.97762 25.6478C3.68072 24.9471 2.74331 23.8104 2.07616 22.5796C0.767321 20.1649 0.242595 16.9255 0.192336 13.8934C0.141522 10.8277 0.570396 7.63056 1.44214 5.16325C2.56954 1.97233 5.29461 0.497093 8.11843 0.119367C10.9077 -0.253734 14.0909 0.36314 17.0079 1.59209C17.2244 1.68331 17.4405 1.77834 17.6559 1.87712C17.7685 1.85566 17.8806 1.83634 17.9921 1.81919C19.3086 1.61675 20.7574 1.68652 22.015 2.3475C23.3826 3.06626 24.3039 4.37752 24.5276 6.08686C24.5618 6.34845 24.5793 6.61488 24.581 6.88576C24.6872 7.00473 24.7916 7.12504 24.8943 7.24666ZM11.8655 4.72065C10.7013 4.51416 9.61205 4.47281 8.6695 4.59889C6.85096 4.84215 5.89463 5.62503 5.50616 6.72453C4.86203 8.54765 4.47883 11.1651 4.52275 13.8153C4.56724 16.499 5.04407 18.8767 5.84662 20.3573C6.23517 21.0741 6.63092 21.4546 6.97001 21.6378C7.26461 21.7969 7.67874 21.8984 8.34313 21.7331C7.67303 20.2631 7.20026 18.5558 6.95739 16.6249C6.42529 12.3946 7.97697 8.84304 10.2059 6.32244C10.7211 5.73976 11.2791 5.20422 11.8655 4.72065ZM17.2223 6.67555C15.9348 7.17624 14.5305 8.0941 13.3899 9.38393C11.8562 11.1184 10.9175 13.3811 11.2517 16.0376C11.4173 17.3547 11.7064 18.4569 12.0739 19.372C13.2225 18.3247 14.557 16.8767 16.0835 14.9104C17.8542 12.6295 18.9575 10.7976 19.5837 9.37721C19.721 9.06564 19.8318 8.78207 19.9206 8.52503C19.0996 7.83658 18.1875 7.21409 17.2223 6.67555ZM14.8479 22.8422C15.743 23.3573 16.7264 23.557 17.7101 23.4787C20.4756 23.2585 23.4833 20.7624 23.837 16.1512C23.9375 14.8416 23.6525 13.5456 23.026 12.2971C22.1973 13.9178 21.0182 15.7318 19.4498 17.752C17.8386 19.8274 16.3079 21.5229 14.8479 22.8422Z" fill="#E3E3E3"/>
<path d="M36.1883 21.3313V6.73126H39.9083V21.3313H36.1883ZM39.5083 21.3313V18.0913H45.4283V21.3313H39.5083Z" fill="#E3E3E3"/>
<path d="M54.2663 21.7313C52.9329 21.7313 51.7729 21.5046 50.7863 21.0513C49.7996 20.5846 48.9796 19.9779 48.3263 19.2313C47.6729 18.4713 47.1863 17.6513 46.8663 16.7713C46.5463 15.8913 46.3863 15.0379 46.3863 14.2113V13.7713C46.3863 12.8513 46.5529 11.9513 46.8863 11.0713C47.2196 10.1779 47.7196 9.37126 48.3863 8.65126C49.0529 7.93126 49.8729 7.35793 50.8463 6.93126C51.8329 6.50459 52.9729 6.29126 54.2663 6.29126C55.5463 6.29126 56.6729 6.50459 57.6463 6.93126C58.6329 7.35793 59.4596 7.93126 60.1263 8.65126C60.7929 9.37126 61.2929 10.1779 61.6263 11.0713C61.9729 11.9513 62.1463 12.8513 62.1463 13.7713V14.2113C62.1463 15.0379 61.9796 15.8913 61.6463 16.7713C61.3263 17.6513 60.8396 18.4713 60.1863 19.2313C59.5329 19.9779 58.7129 20.5846 57.7263 21.0513C56.7396 21.5046 55.5863 21.7313 54.2663 21.7313ZM54.2663 18.2513C54.9063 18.2513 55.4796 18.1446 55.9863 17.9313C56.4929 17.7179 56.9263 17.4179 57.2863 17.0313C57.6463 16.6446 57.9196 16.1979 58.1063 15.6913C58.2929 15.1713 58.3863 14.6113 58.3863 14.0113C58.3863 13.3713 58.2863 12.7913 58.0863 12.2713C57.8996 11.7513 57.6263 11.3046 57.2663 10.9313C56.9063 10.5579 56.4729 10.2713 55.9663 10.0713C55.4596 9.87126 54.8929 9.77126 54.2663 9.77126C53.6263 9.77126 53.0529 9.87126 52.5463 10.0713C52.0396 10.2713 51.6063 10.5579 51.2463 10.9313C50.8863 11.3046 50.6129 11.7513 50.4263 12.2713C50.2396 12.7913 50.1463 13.3713 50.1463 14.0113C50.1463 14.6113 50.2396 15.1713 50.4263 15.6913C50.6129 16.1979 50.8863 16.6446 51.2463 17.0313C51.6063 17.4179 52.0396 17.7179 52.5463 17.9313C53.0529 18.1446 53.6263 18.2513 54.2663 18.2513Z" fill="#E3E3E3"/>
<path d="M71.4514 21.7313C70.0781 21.7313 68.8981 21.5046 67.9114 21.0513C66.9248 20.5846 66.1181 19.9779 65.4914 19.2313C64.8648 18.4846 64.4048 17.6713 64.1114 16.7913C63.8181 15.9113 63.6714 15.0513 63.6714 14.2113V13.7713C63.6714 12.8646 63.8248 11.9713 64.1314 11.0913C64.4381 10.1979 64.8981 9.39126 65.5114 8.67126C66.1381 7.95126 66.9181 7.37793 67.8514 6.95126C68.7848 6.51126 69.8781 6.29126 71.1314 6.29126C72.4781 6.29126 73.6647 6.53793 74.6914 7.03126C75.7314 7.52459 76.5648 8.21126 77.1914 9.09126C77.8181 9.95793 78.1848 10.9646 78.2914 12.1113H74.5714C74.4914 11.6713 74.2981 11.2779 73.9914 10.9313C73.6847 10.5713 73.2848 10.2913 72.7914 10.0913C72.3114 9.87793 71.7581 9.77126 71.1314 9.77126C70.5314 9.77126 69.9981 9.87793 69.5314 10.0913C69.0781 10.2913 68.6914 10.5846 68.3714 10.9713C68.0648 11.3446 67.8314 11.7913 67.6714 12.3113C67.5114 12.8313 67.4314 13.3979 67.4314 14.0113C67.4314 14.6246 67.5181 15.1979 67.6914 15.7313C67.8648 16.2513 68.1181 16.7113 68.4514 17.1113C68.7848 17.4979 69.2048 17.7979 69.7114 18.0113C70.2181 18.2246 70.7981 18.3313 71.4514 18.3313C72.2781 18.3313 72.9914 18.1579 73.5914 17.8113C74.1914 17.4646 74.6114 17.0046 74.8514 16.4313L74.5714 18.6313V15.4513H77.9714V18.4513C77.3581 19.5046 76.4847 20.3179 75.3514 20.8913C74.2314 21.4513 72.9314 21.7313 71.4514 21.7313ZM71.0514 16.1713V13.5713H79.1714V16.1713H71.0514Z" fill="#E3E3E3"/>
<path d="M88.1725 21.7313C86.8392 21.7313 85.6792 21.5046 84.6925 21.0513C83.7058 20.5846 82.8858 19.9779 82.2325 19.2313C81.5792 18.4713 81.0925 17.6513 80.7725 16.7713C80.4525 15.8913 80.2925 15.0379 80.2925 14.2113V13.7713C80.2925 12.8513 80.4592 11.9513 80.7925 11.0713C81.1258 10.1779 81.6258 9.37126 82.2925 8.65126C82.9592 7.93126 83.7792 7.35793 84.7525 6.93126C85.7392 6.50459 86.8792 6.29126 88.1725 6.29126C89.4525 6.29126 90.5792 6.50459 91.5525 6.93126C92.5392 7.35793 93.3658 7.93126 94.0325 8.65126C94.6992 9.37126 95.1992 10.1779 95.5325 11.0713C95.8792 11.9513 96.0525 12.8513 96.0525 13.7713V14.2113C96.0525 15.0379 95.8858 15.8913 95.5525 16.7713C95.2325 17.6513 94.7458 18.4713 94.0925 19.2313C93.4392 19.9779 92.6192 20.5846 91.6325 21.0513C90.6458 21.5046 89.4925 21.7313 88.1725 21.7313ZM88.1725 18.2513C88.8125 18.2513 89.3858 18.1446 89.8925 17.9313C90.3992 17.7179 90.8325 17.4179 91.1925 17.0313C91.5525 16.6446 91.8258 16.1979 92.0125 15.6913C92.1992 15.1713 92.2925 14.6113 92.2925 14.0113C92.2925 13.3713 92.1925 12.7913 91.9925 12.2713C91.8058 11.7513 91.5325 11.3046 91.1725 10.9313C90.8125 10.5579 90.3792 10.2713 89.8725 10.0713C89.3658 9.87126 88.7992 9.77126 88.1725 9.77126C87.5325 9.77126 86.9592 9.87126 86.4525 10.0713C85.9458 10.2713 85.5125 10.5579 85.1525 10.9313C84.7925 11.3046 84.5192 11.7513 84.3325 12.2713C84.1458 12.7913 84.0525 13.3713 84.0525 14.0113C84.0525 14.6113 84.1458 15.1713 84.3325 15.6913C84.5192 16.1979 84.7925 16.6446 85.1525 17.0313C85.5125 17.4179 85.9458 17.7179 86.4525 17.9313C86.9592 18.1446 87.5325 18.2513 88.1725 18.2513Z" fill="#E3E3E3"/>
</svg>
