<svg width="109" height="27" viewBox="0 0 109 27" fill="none" xmlns="http://www.w3.org/2000/svg">
<path fill-rule="evenodd" clip-rule="evenodd" d="M11.7618 0.0277182C12.6443 0.143126 13.3444 0.827826 13.4794 1.70756L15.7407 16.4482L21.7948 1.26987C22.1169 0.462304 22.9239 -0.0446537 23.7912 0.0156499C24.6586 0.0759536 25.3876 0.689703 25.5948 1.53408L30.9948 23.5341C31.2581 24.6068 30.602 25.6899 29.5292 25.9532C28.4565 26.2165 27.3735 25.5603 27.1101 24.4876L23.1979 8.54889L16.7352 24.7518C16.4009 25.5898 15.547 26.1002 14.6507 25.9979C13.7543 25.8956 13.0374 25.2059 12.9006 24.3141L10.5714 9.13095L3.8849 24.4194C3.50552 25.2868 2.56986 25.7694 1.64312 25.5756C0.716372 25.3818 0.0524902 24.5648 0.0524902 23.618V2.01083H4.05249V14.0539L9.67008 1.20942C10.0267 0.393969 10.8793 -0.0876893 11.7618 0.0277182Z" fill="#E3E3E3"/>
<path d="M42.6404 19.0404H48.5341V21.8348H39.053V4.26273H42.6404V19.0404Z" fill="#E3E3E3"/>
<path d="M59.1167 22.011C57.4425 22.011 55.9051 21.625 54.5042 20.8529C53.1034 20.0809 51.993 19.0152 51.173 17.6557C50.3531 16.2795 49.9431 14.7271 49.9431 12.9984C49.9431 11.2865 50.3531 9.75085 51.173 8.39141C51.993 7.01518 53.1034 5.94105 54.5042 5.16903C55.9051 4.397 57.4425 4.01099 59.1167 4.01099C60.8079 4.01099 62.3454 4.397 63.7291 5.16903C65.1299 5.94105 66.2318 7.01518 67.0347 8.39141C67.8547 9.75085 68.2647 11.2865 68.2647 12.9984C68.2647 14.7271 67.8547 16.2795 67.0347 17.6557C66.2318 19.0152 65.1299 20.0809 63.7291 20.8529C62.3283 21.625 60.7908 22.011 59.1167 22.011ZM59.1167 18.8641C60.1929 18.8641 61.141 18.6292 61.961 18.1592C62.781 17.6725 63.4216 16.9844 63.8829 16.0949C64.3441 15.2054 64.5747 14.1732 64.5747 12.9984C64.5747 11.8236 64.3441 10.7998 63.8829 9.92707C63.4216 9.03756 62.781 8.35784 61.961 7.88791C61.141 7.41798 60.1929 7.18301 59.1167 7.18301C58.0404 7.18301 57.0838 7.41798 56.2467 7.88791C55.4267 8.35784 54.7861 9.03756 54.3249 9.92707C53.8636 10.7998 53.633 11.8236 53.633 12.9984C53.633 14.1732 53.8636 15.2054 54.3249 16.0949C54.7861 16.9844 55.4267 17.6725 56.2467 18.1592C57.0838 18.6292 58.0404 18.8641 59.1167 18.8641Z" fill="#E3E3E3"/>
<path d="M83.3872 9.54945C82.9772 8.81099 82.4135 8.24875 81.696 7.86273C80.9785 7.47672 80.1414 7.28371 79.1848 7.28371C78.1256 7.28371 77.1861 7.51868 76.3661 7.98861C75.5461 8.45854 74.9055 9.12987 74.4442 10.0026C73.983 10.8753 73.7524 11.8823 73.7524 13.0236C73.7524 14.1984 73.983 15.2222 74.4442 16.0949C74.9226 16.9676 75.5803 17.639 76.4173 18.1089C77.2544 18.5788 78.2281 18.8138 79.3385 18.8138C80.7052 18.8138 81.8241 18.4613 82.6954 17.7564C83.5666 17.0348 84.1389 16.0362 84.4122 14.7606H78.2623V12.0669H87.9484V15.1383C87.7093 16.3634 87.1968 17.4963 86.4109 18.5369C85.6251 19.5774 84.6087 20.4166 83.3616 21.0543C82.1316 21.6753 80.7479 21.9858 79.2104 21.9858C77.485 21.9858 75.9219 21.6082 74.5211 20.8529C73.1374 20.0809 72.0441 19.0152 71.2411 17.6557C70.4553 16.2963 70.0624 14.7522 70.0624 13.0236C70.0624 11.2949 70.4553 9.75085 71.2411 8.39141C72.0441 7.01518 73.1374 5.94945 74.5211 5.1942C75.9219 4.42217 77.4765 4.03616 79.1848 4.03616C81.2006 4.03616 82.9516 4.52287 84.4379 5.4963C85.9241 6.45294 86.9491 7.80399 87.5128 9.54945H83.3872Z" fill="#E3E3E3"/>
<path d="M98.905 22.011C97.2308 22.011 95.6933 21.625 94.2925 20.8529C92.8917 20.0809 91.7813 19.0152 90.9613 17.6557C90.1413 16.2795 89.7313 14.7271 89.7313 12.9984C89.7313 11.2865 90.1413 9.75085 90.9613 8.39141C91.7813 7.01518 92.8917 5.94105 94.2925 5.16903C95.6933 4.397 97.2308 4.01099 98.905 4.01099C100.596 4.01099 102.134 4.397 103.517 5.16903C104.918 5.94105 106.02 7.01518 106.823 8.39141C107.643 9.75085 108.053 11.2865 108.053 12.9984C108.053 14.7271 107.643 16.2795 106.823 17.6557C106.02 19.0152 104.918 20.0809 103.517 20.8529C102.117 21.625 100.579 22.011 98.905 22.011ZM98.905 18.8641C99.9812 18.8641 100.929 18.6292 101.749 18.1592C102.569 17.6725 103.21 16.9844 103.671 16.0949C104.132 15.2054 104.363 14.1732 104.363 12.9984C104.363 11.8236 104.132 10.7998 103.671 9.92707C103.21 9.03756 102.569 8.35784 101.749 7.88791C100.929 7.41798 99.9812 7.18301 98.905 7.18301C97.8287 7.18301 96.8721 7.41798 96.035 7.88791C95.215 8.35784 94.5744 9.03756 94.1132 9.92707C93.6519 10.7998 93.4213 11.8236 93.4213 12.9984C93.4213 14.1732 93.6519 15.2054 94.1132 16.0949C94.5744 16.9844 95.215 17.6725 96.035 18.1592C96.8721 18.6292 97.8287 18.8641 98.905 18.8641Z" fill="#E3E3E3"/>
</svg>
