<svg width="18" height="22" viewBox="0 0 18 22" fill="none" xmlns="http://www.w3.org/2000/svg">
<path d="M13 10.2C13 11.2609 12.5786 12.2783 11.8284 13.0284C11.0783 13.7786 10.0609 14.2 8.99999 14.2C7.93913 14.2 6.92172 13.7786 6.17157 13.0284C5.42143 12.2783 5 11.2609 5 10.2V4.60003C5 3.53916 5.42143 2.52175 6.17157 1.77161C6.92172 1.02146 7.93913 0.600037 8.99999 0.600037C10.0609 0.600037 11.0783 1.02146 11.8284 1.77161C12.5786 2.52175 13 3.53916 13 4.60003V10.2Z" stroke="#1D1D1D" stroke-linecap="round" stroke-linejoin="round"/>
<path d="M17 11C17.0021 11.9461 16.8173 12.8833 16.4562 13.7578C16.0951 14.6323 15.5649 15.4269 14.8959 16.0959C14.2269 16.7649 13.4323 17.2951 12.5578 17.6562C11.6833 18.0173 10.7461 18.2021 9.8 18.2H8.2C7.25389 18.2021 6.31669 18.0173 5.44219 17.6562C4.5677 17.2951 3.77314 16.7649 3.10414 16.0959C2.43514 15.4269 1.90487 14.6323 1.54379 13.7578C1.1827 12.8833 0.997908 11.9461 1.00002 11V11" stroke="#1D1D1D" stroke-linecap="round" stroke-linejoin="round"/>
<path d="M9.00001 18.2V21.4" stroke="#1D1D1D" stroke-linecap="round" stroke-linejoin="round"/>
</svg>
