<svg width="23" height="23" viewBox="0 0 23 23" fill="none" xmlns="http://www.w3.org/2000/svg">
<path d="M19.5769 12.3065V9.07536C19.5769 8.64688 19.4067 8.23595 19.1038 7.93296C18.8008 7.62998 18.39 7.45977 17.9615 7.45977H2.61538C2.18696 7.45977 1.77608 7.62998 1.47314 7.93296C1.17019 8.23595 1 8.64688 1 9.07536V20.3845C1 20.813 1.17019 21.2239 1.47314 21.5269C1.77608 21.8298 2.18696 22.0001 2.61538 22.0001H17.9615C18.39 22.0001 18.8008 21.8298 19.1038 21.5269C19.4067 21.2239 19.5769 20.813 19.5769 20.3845V16.3455M6.39538 3.4208L15.5546 1.02973C15.6575 1.00073 15.7653 0.99288 15.8713 1.00667C15.9773 1.02045 16.0795 1.05558 16.1716 1.10993C16.2637 1.16429 16.3438 1.23674 16.4071 1.32292C16.4704 1.40909 16.5156 1.50721 16.54 1.61134L16.9923 3.4208M17.1538 12.3065H21.1923C21.6384 12.3065 22 12.6682 22 13.1143V15.5377C22 15.9838 21.6384 16.3455 21.1923 16.3455H17.1538C16.7078 16.3455 16.3462 15.9838 16.3462 15.5377V13.1143C16.3462 12.6682 16.7078 12.3065 17.1538 12.3065Z" stroke="#1D1D1D" stroke-linecap="round" stroke-linejoin="round"/>
</svg>
