<svg width="25" height="25" viewBox="0 0 25 25" fill="none" xmlns="http://www.w3.org/2000/svg">
<path d="M11.6154 19.577H13.3846M17.8077 8.9616V5.42314M9.84615 8.9616V2.76929H4.53846V8.9616M4.53846 8.9616H20.4615C20.9308 8.9616 21.3808 9.148 21.7126 9.4798C22.0444 9.81159 22.2308 10.2616 22.2308 10.7308V15.1539M4.53846 8.9616C4.06923 8.9616 3.61922 9.148 3.28743 9.4798C2.95563 9.81159 2.76923 10.2616 2.76923 10.7308V15.1539M2.76923 15.1539H22.2308M2.76923 15.1539C1.79211 15.1539 1 15.946 1 16.9231V22.2308C1 23.2079 1.79211 24.0001 2.76923 24.0001H22.2308C23.2079 24.0001 24 23.2079 24 22.2308V16.9231C24 15.946 23.2079 15.1539 22.2308 15.1539M21.3462 3.2116C21.3462 3.50202 21.2889 3.7896 21.1778 4.05792C21.0667 4.32623 20.9038 4.57003 20.6984 4.77539C20.493 4.98075 20.2493 5.14365 19.9809 5.25479C19.7126 5.36593 19.425 5.42314 19.1346 5.42314H16.4808C15.8942 5.42314 15.3317 5.19014 14.917 4.77539C14.5022 4.36065 14.2692 3.79814 14.2692 3.2116C14.2692 2.62506 14.5022 2.06255 14.917 1.64781C15.3317 1.23306 15.8942 1.00006 16.4808 1.00006H19.1346C19.425 1.00006 19.7126 1.05726 19.9809 1.1684C20.2493 1.27954 20.493 1.44245 20.6984 1.64781C20.9038 1.85317 21.0667 2.09696 21.1778 2.36528C21.2889 2.6336 21.3462 2.92118 21.3462 3.2116Z" stroke="white" stroke-linecap="round" stroke-linejoin="round"/>
</svg>
