<svg width="25" height="25" viewBox="0 0 25 25" fill="none" xmlns="http://www.w3.org/2000/svg">
<path d="M5.42308 1.00006H2.76923C2.3 1.00006 1.84999 1.18646 1.5182 1.51826C1.1864 1.85005 1 2.30006 1 2.76929V5.42314M19.5769 1.00006H22.2308C22.7 1.00006 23.15 1.18646 23.4818 1.51826C23.8136 1.85005 24 2.30006 24 2.76929V5.42314M5.42308 24.0001H2.76923C2.3 24.0001 1.84999 23.8137 1.5182 23.4819C1.1864 23.1501 1 22.7001 1 22.2308V19.577M19.5769 24.0001H22.2308C22.7 24.0001 23.15 23.8137 23.4818 23.4819C23.8136 23.1501 24 22.7001 24 22.2308V19.577M5.42308 16.9231V19.577H8.07692M12.5 19.577V16.9231H9.84615M19.5769 8.07698H16.9231V5.42314M19.5769 14.2693V11.6154H16.9231M16.9231 16.9231V19.577H19.5769M7.19231 5.42314H10.7308C11.7079 5.42314 12.5 6.21525 12.5 7.19237V10.7308C12.5 11.7079 11.7079 12.5001 10.7308 12.5001H7.19231C6.21519 12.5001 5.42308 11.7079 5.42308 10.7308V7.19237C5.42308 6.21525 6.21519 5.42314 7.19231 5.42314Z" stroke="white" stroke-linecap="round" stroke-linejoin="round"/>
</svg>
