<svg width="106" height="34" viewBox="0 0 106 34" fill="none" xmlns="http://www.w3.org/2000/svg">
<path d="M5.46328 18.2551V16.1352C4.52813 16.1141 3.69141 16.0262 2.95313 15.8715C2.22188 15.7098 1.55391 15.4953 0.949219 15.2281V12.4437C1.54688 12.732 2.26055 12.9957 3.09023 13.2348C3.91992 13.4668 4.71094 13.6074 5.46328 13.6566V10.3871C4.35234 9.95117 3.46289 9.5293 2.79492 9.12148C2.13398 8.70664 1.65586 8.24961 1.36055 7.75039C1.07227 7.24414 0.928125 6.63945 0.928125 5.93633C0.928125 5.21914 1.11797 4.60039 1.49766 4.08008C1.88438 3.55273 2.41875 3.13086 3.10078 2.81445C3.78281 2.49805 4.57031 2.30117 5.46328 2.22383V0.610156H6.9082V2.18164C7.72383 2.20977 8.4832 2.30469 9.18633 2.46641C9.89648 2.62109 10.5926 2.84961 11.2746 3.15195L10.2832 5.61992C9.70664 5.38086 9.12656 5.19453 8.54297 5.06094C7.96641 4.92734 7.42148 4.83945 6.9082 4.79727V7.90859C7.68867 8.19687 8.43047 8.50977 9.13359 8.84727C9.83672 9.18477 10.4098 9.61367 10.8527 10.134C11.2957 10.6543 11.5172 11.3363 11.5172 12.1801C11.5172 13.2277 11.134 14.1066 10.3676 14.8168C9.6082 15.527 8.45508 15.9523 6.9082 16.093V18.2551H5.46328ZM6.9082 13.5828C7.40039 13.4984 7.7625 13.3543 7.99453 13.1504C8.22656 12.9395 8.34258 12.6687 8.34258 12.3383C8.34258 12.1414 8.28984 11.9656 8.18438 11.8109C8.07891 11.6562 7.91719 11.5121 7.69922 11.3785C7.48828 11.2379 7.22461 11.0973 6.9082 10.9566V13.5828ZM5.46328 7.31797V4.83945C5.175 4.88164 4.92891 4.95195 4.725 5.05039C4.52109 5.1418 4.36641 5.26133 4.26094 5.40898C4.15547 5.55664 4.10273 5.73242 4.10273 5.93633C4.10273 6.14023 4.14844 6.31953 4.23984 6.47422C4.33828 6.62891 4.48594 6.77305 4.68281 6.90664C4.88672 7.04023 5.14688 7.17734 5.46328 7.31797ZM31.9933 14.252C31.9933 15.7754 31.882 17.2695 31.6593 18.7344C31.4484 20.1992 31.0734 21.5703 30.5343 22.8477C30.007 24.125 29.2746 25.2559 28.3371 26.2402C27.4113 27.2129 26.2394 27.9746 24.8214 28.5254C23.4035 29.0762 21.6925 29.3516 19.6886 29.3516C19.1847 29.3516 18.5988 29.3223 17.9308 29.2637C17.2746 29.2168 16.7355 29.1465 16.3136 29.0527V25.6074C16.7589 25.7363 17.257 25.8418 17.8078 25.9238C18.3703 25.9941 18.9269 26.0293 19.4777 26.0293C21.6457 26.0293 23.3332 25.625 24.5402 24.8164C25.7589 24.0078 26.6203 22.8945 27.1242 21.4766C27.6398 20.0586 27.9328 18.4473 28.0031 16.6426H27.7921C27.4523 17.2051 27.0246 17.7207 26.5089 18.1895C25.9933 18.6465 25.3546 19.0156 24.5929 19.2969C23.8312 19.5664 22.9054 19.7012 21.8156 19.7012C20.339 19.7012 19.05 19.3906 17.9484 18.7695C16.8585 18.1484 16.0089 17.2461 15.3996 16.0625C14.8019 14.8672 14.5031 13.4316 14.5031 11.7559C14.5031 9.93945 14.8488 8.375 15.5402 7.0625C16.2316 5.75 17.2101 4.74219 18.4757 4.03906C19.7414 3.32422 21.2296 2.9668 22.9406 2.9668C24.2296 2.9668 25.4191 3.20117 26.5089 3.66992C27.6105 4.12695 28.5714 4.83008 29.3918 5.7793C30.2121 6.7168 30.8507 7.89453 31.3078 9.3125C31.7648 10.7188 31.9933 12.3652 31.9933 14.252ZM22.9933 6.37695C21.6925 6.37695 20.632 6.81641 19.8117 7.69531C18.9914 8.5625 18.5812 9.89844 18.5812 11.7031C18.5812 13.168 18.9328 14.3281 19.6359 15.1836C20.339 16.0391 21.4171 16.4668 22.8703 16.4668C23.8781 16.4668 24.7453 16.2617 25.4718 15.8516C26.2101 15.4297 26.7785 14.8965 27.1769 14.252C27.5871 13.6074 27.7921 12.9512 27.7921 12.2832C27.7921 11.5918 27.6925 10.9004 27.4933 10.209C27.3058 9.51758 27.0128 8.88477 26.6144 8.31055C26.216 7.73633 25.7121 7.27344 25.1027 6.92188C24.505 6.55859 23.8019 6.37695 22.9933 6.37695ZM53.5617 23.3574H50.0812V29H46.0031V23.3574H34.3136V20.2285L46.0558 3.23047H50.0812V19.9297H53.5617V23.3574ZM46.0031 19.9297V13.5488C46.0031 13.0215 46.0089 12.4883 46.0207 11.9492C46.0441 11.3984 46.0675 10.8711 46.091 10.3672C46.1144 9.86328 46.1378 9.40039 46.1613 8.97852C46.1847 8.54492 46.2023 8.1875 46.214 7.90625H46.0734C45.8507 8.375 45.6046 8.85547 45.3351 9.34766C45.0656 9.82812 44.7785 10.2969 44.4738 10.7539L38.1457 19.9297H46.0031ZM61.3312 24.8164L61.5773 25.2207C61.3664 26.0645 61.0968 26.9727 60.7687 27.9453C60.4406 28.918 60.0832 29.8906 59.6964 30.8633C59.3097 31.8477 58.9171 32.7734 58.5187 33.6406H55.4953C55.7414 32.6914 55.9757 31.6953 56.1984 30.6523C56.4328 29.6211 56.6437 28.6016 56.8312 27.5938C57.0304 26.5742 57.1886 25.6484 57.3058 24.8164H61.3312ZM65.673 18.0488C65.673 16.5371 65.7785 15.0488 65.9894 13.584C66.2121 12.1191 66.5871 10.748 67.1144 9.4707C67.6418 8.19336 68.3683 7.06836 69.2941 6.0957C70.2316 5.12305 71.4093 4.36133 72.8273 3.81055C74.2453 3.24805 75.9503 2.9668 77.9425 2.9668C78.4582 2.9668 79.0382 2.99023 79.6828 3.03711C80.3273 3.08398 80.8605 3.16016 81.2824 3.26562V6.69336C80.8253 6.56445 80.3214 6.46484 79.7707 6.39453C79.2316 6.32422 78.6925 6.28906 78.1535 6.28906C75.9972 6.28906 74.3156 6.69922 73.1086 7.51953C71.9015 8.32812 71.0402 9.44141 70.5246 10.8594C70.0089 12.2656 69.7101 13.877 69.6281 15.6934H69.839C70.1906 15.1074 70.63 14.5859 71.1574 14.1289C71.6847 13.6719 72.3293 13.3086 73.091 13.0391C73.8527 12.7578 74.7375 12.6172 75.7453 12.6172C77.2453 12.6172 78.5519 12.9336 79.6652 13.5664C80.7785 14.1875 81.6339 15.0898 82.2316 16.2734C82.841 17.457 83.1457 18.8926 83.1457 20.5801C83.1457 22.3965 82.8 23.9609 82.1086 25.2734C81.4289 26.5859 80.4562 27.5938 79.1906 28.2969C77.9367 29 76.4425 29.3516 74.7082 29.3516C73.4308 29.3516 72.2414 29.1172 71.1398 28.6484C70.05 28.1797 69.0949 27.4766 68.2746 26.5391C67.4543 25.6016 66.8156 24.4297 66.3586 23.0234C65.9015 21.6055 65.673 19.9473 65.673 18.0488ZM74.6378 25.9414C75.9738 25.9414 77.0461 25.5078 77.8546 24.6406C78.675 23.7617 79.0851 22.4199 79.0851 20.6152C79.0851 19.1504 78.7218 17.9902 77.9953 17.1348C77.2804 16.2793 76.2023 15.8516 74.7609 15.8516C73.7765 15.8516 72.9152 16.0625 72.1769 16.4844C71.4386 16.9062 70.8644 17.4395 70.4543 18.084C70.0558 18.7285 69.8566 19.3848 69.8566 20.0527C69.8566 20.7324 69.9562 21.418 70.1554 22.1094C70.3546 22.8008 70.6535 23.4395 71.0519 24.0254C71.4503 24.5996 71.9484 25.0625 72.5461 25.4141C73.1437 25.7656 73.841 25.9414 74.6378 25.9414ZM91.7062 1.64844V8.24023C91.7062 9.00195 91.6828 9.75195 91.6359 10.4902C91.6007 11.2168 91.5656 11.7852 91.5304 12.1953H91.7062C92.2336 11.3516 92.966 10.6426 93.9035 10.0684C94.8527 9.48242 96.0656 9.18945 97.5421 9.18945C99.8507 9.18945 101.708 10.0391 103.114 11.7383C104.521 13.4258 105.224 15.9277 105.224 19.2441C105.224 21.4473 104.902 23.2988 104.257 24.7988C103.612 26.2988 102.704 27.4355 101.532 28.209C100.372 28.9707 99.007 29.3516 97.4367 29.3516C95.9601 29.3516 94.7648 29.082 93.8507 28.543C92.9484 27.9922 92.2394 27.3535 91.7238 26.627H91.425L90.6691 29H87.5753V1.64844H91.7062ZM96.4523 12.5469C95.2804 12.5469 94.3488 12.7812 93.6574 13.25C92.9777 13.7188 92.4855 14.4219 92.1808 15.3594C91.8761 16.2852 91.7179 17.4629 91.7062 18.8926V19.2617C91.7062 21.4297 92.0461 23.0879 92.7257 24.2363C93.4171 25.3848 94.6711 25.959 96.4875 25.959C97.9289 25.959 99.0363 25.3789 99.8097 24.2188C100.583 23.0469 100.97 21.3711 100.97 19.1914C100.97 16.9883 100.583 15.3301 99.8097 14.2168C99.048 13.1035 97.9289 12.5469 96.4523 12.5469Z" fill="#1D1D1D"/>
</svg>
