<svg width="101" height="32" viewBox="0 0 101 32" fill="none" xmlns="http://www.w3.org/2000/svg">
<path d="M18.0195 14.1328C18.0195 16.207 17.8555 18.0645 17.5273 19.7051C17.2109 21.334 16.707 22.7168 16.0156 23.8535C15.3242 24.9902 14.4219 25.8574 13.3086 26.4551C12.1953 27.0527 10.8477 27.3516 9.26562 27.3516C7.28516 27.3516 5.65039 26.8301 4.36133 25.7871C3.07227 24.7324 2.11719 23.2207 1.49609 21.252C0.875 19.2715 0.564453 16.8984 0.564453 14.1328C0.564453 11.3672 0.845703 9 1.4082 7.03125C1.98242 5.05078 2.9082 3.5332 4.18555 2.47852C5.46289 1.42383 7.15625 0.896484 9.26562 0.896484C11.2578 0.896484 12.8984 1.42383 14.1875 2.47852C15.4883 3.52148 16.4492 5.0332 17.0703 7.01367C17.7031 8.98242 18.0195 11.3555 18.0195 14.1328ZM4.73047 14.1328C4.73047 16.3008 4.87109 18.1113 5.15234 19.5645C5.44531 21.0176 5.92578 22.1074 6.59375 22.834C7.26172 23.5488 8.15234 23.9062 9.26562 23.9062C10.3789 23.9062 11.2695 23.5488 11.9375 22.834C12.6055 22.1191 13.0859 21.0352 13.3789 19.582C13.6836 18.1289 13.8359 16.3125 13.8359 14.1328C13.8359 11.9766 13.6895 10.1719 13.3965 8.71875C13.1035 7.26562 12.623 6.17578 11.9551 5.44922C11.2871 4.71094 10.3906 4.3418 9.26562 4.3418C8.14062 4.3418 7.24414 4.71094 6.57617 5.44922C5.91992 6.17578 5.44531 7.26562 5.15234 8.71875C4.87109 10.1719 4.73047 11.9766 4.73047 14.1328ZM26.7207 22.8164L26.9668 23.2207C26.7559 24.0645 26.4863 24.9727 26.1582 25.9453C25.8301 26.918 25.4727 27.8906 25.0859 28.8633C24.6992 29.8477 24.3066 30.7734 23.9082 31.6406H20.8848C21.1309 30.6914 21.3652 29.6953 21.5879 28.6523C21.8223 27.6211 22.0332 26.6016 22.2207 25.5938C22.4199 24.5742 22.5781 23.6484 22.6953 22.8164H26.7207ZM48.4297 27H31.0273V23.8887L37.6895 17.1387C38.9785 15.8262 40.0391 14.6953 40.8711 13.7461C41.7031 12.7852 42.3184 11.877 42.7168 11.0215C43.127 10.166 43.332 9.23438 43.332 8.22656C43.332 6.98438 42.9746 6.04688 42.2598 5.41406C41.5449 4.76953 40.6016 4.44727 39.4297 4.44727C38.3164 4.44727 37.2852 4.66992 36.3359 5.11523C35.3984 5.54883 34.4258 6.16992 33.418 6.97852L31.1504 4.25391C31.8652 3.64453 32.627 3.08789 33.4355 2.58398C34.2559 2.08008 35.1699 1.68164 36.1777 1.38867C37.1855 1.08398 38.334 0.931641 39.623 0.931641C41.252 0.931641 42.6582 1.22461 43.8418 1.81055C45.0254 2.38477 45.9336 3.1875 46.5664 4.21875C47.2109 5.25 47.5332 6.45117 47.5332 7.82227C47.5332 9.20508 47.2578 10.4824 46.707 11.6543C46.1562 12.8262 45.3711 13.9863 44.3516 15.1348C43.332 16.2715 42.1191 17.5078 40.7129 18.8438L36.2656 23.1855V23.3789H48.4297V27ZM60.3652 10.9336C62.0176 10.9336 63.4707 11.2324 64.7246 11.8301C65.9902 12.416 66.9746 13.2832 67.6777 14.4316C68.3809 15.5684 68.7324 16.9629 68.7324 18.6152C68.7324 20.4199 68.3516 21.9785 67.5898 23.291C66.8281 24.5918 65.709 25.5938 64.2324 26.2969C62.7559 27 60.957 27.3516 58.8359 27.3516C57.4883 27.3516 56.2285 27.2344 55.0566 27C53.8965 26.7656 52.8945 26.4141 52.0508 25.9453V22.2188C52.9297 22.7109 53.9844 23.1152 55.2148 23.4316C56.4453 23.7363 57.623 23.8887 58.748 23.8887C59.9434 23.8887 60.9688 23.7129 61.8242 23.3613C62.6797 23.0098 63.3359 22.4707 63.793 21.7441C64.2617 21.0176 64.4961 20.0977 64.4961 18.9844C64.4961 17.5078 64.0215 16.3711 63.0723 15.5742C62.1348 14.7656 60.6641 14.3613 58.6602 14.3613C57.957 14.3613 57.207 14.4258 56.4102 14.5547C55.625 14.6719 54.9688 14.8008 54.4414 14.9414L52.6309 13.8691L53.5977 1.30078H66.957V4.93945H57.2363L56.6738 11.3379C57.0957 11.2441 57.5996 11.1562 58.1855 11.0742C58.7715 10.9805 59.498 10.9336 60.3652 10.9336ZM77.7148 0.931641C79.6016 0.931641 81.0312 1.63477 82.0039 3.04102C82.9766 4.43555 83.4629 6.41016 83.4629 8.96484C83.4629 11.5078 82.9941 13.4941 82.0566 14.9238C81.1309 16.3535 79.6836 17.0684 77.7148 17.0684C75.875 17.0684 74.4746 16.3535 73.5137 14.9238C72.5527 13.4941 72.0723 11.5078 72.0723 8.96484C72.0723 6.41016 72.5234 4.43555 73.4258 3.04102C74.3398 1.63477 75.7695 0.931641 77.7148 0.931641ZM77.7324 3.81445C76.9707 3.81445 76.4082 4.24219 76.0449 5.09766C75.6934 5.95312 75.5176 7.24805 75.5176 8.98242C75.5176 10.7051 75.6934 12.0059 76.0449 12.8848C76.4082 13.752 76.9707 14.1855 77.7324 14.1855C78.5059 14.1855 79.0801 13.752 79.4551 12.8848C79.8418 12.0176 80.0352 10.7168 80.0352 8.98242C80.0352 7.25977 79.8477 5.9707 79.4727 5.11523C79.0977 4.24805 78.5176 3.81445 77.7324 3.81445ZM94.9766 1.30078L80.7207 27H77.3281L91.584 1.30078H94.9766ZM94.502 11.2148C96.3887 11.2148 97.8184 11.918 98.791 13.3242C99.7754 14.7188 100.268 16.6934 100.268 19.248C100.268 21.7793 99.7988 23.7598 98.8613 25.1895C97.9355 26.6191 96.4824 27.334 94.502 27.334C92.6621 27.334 91.2617 26.6191 90.3008 25.1895C89.3398 23.7598 88.8594 21.7793 88.8594 19.248C88.8594 16.6934 89.3105 14.7188 90.2129 13.3242C91.127 11.918 92.5566 11.2148 94.502 11.2148ZM94.5195 14.0977C93.7578 14.0977 93.1953 14.5254 92.832 15.3809C92.4805 16.2363 92.3047 17.5312 92.3047 19.2656C92.3047 20.9883 92.4805 22.2891 92.832 23.168C93.1953 24.0352 93.7578 24.4688 94.5195 24.4688C95.3047 24.4688 95.8848 24.041 96.2598 23.1855C96.6348 22.3184 96.8223 21.0117 96.8223 19.2656C96.8223 17.543 96.6348 16.2539 96.2598 15.3984C95.8848 14.5312 95.3047 14.0977 94.5195 14.0977Z" fill="#ACE238"/>
</svg>
