<svg width="87" height="30" viewBox="0 0 87 30" fill="none" xmlns="http://www.w3.org/2000/svg">
<path d="M12.8711 29H7.43945V14.1289C7.43945 13.7188 7.44531 13.2148 7.45703 12.6172C7.46875 12.0078 7.48633 11.3867 7.50977 10.7539C7.5332 10.1094 7.55664 9.5293 7.58008 9.01367C7.45117 9.16602 7.1875 9.42969 6.78906 9.80469C6.40234 10.168 6.03906 10.4961 5.69922 10.7891L2.74609 13.1621L0.126953 9.89258L8.40625 3.30078H12.8711V29ZM38.0078 29H20.043V25.2207L26.4941 18.6992C27.7949 17.3633 28.8379 16.25 29.623 15.3594C30.4199 14.457 30.9941 13.6367 31.3457 12.8984C31.709 12.1602 31.8906 11.3691 31.8906 10.5254C31.8906 9.50586 31.6035 8.74414 31.0293 8.24023C30.4668 7.72461 29.7109 7.4668 28.7617 7.4668C27.7656 7.4668 26.7988 7.69531 25.8613 8.15234C24.9238 8.60938 23.9453 9.25977 22.9258 10.1035L19.9727 6.60547C20.7109 5.97266 21.4902 5.375 22.3105 4.8125C23.1426 4.25 24.1035 3.79883 25.1934 3.45898C26.2949 3.10742 27.6133 2.93164 29.1484 2.93164C30.8359 2.93164 32.2832 3.23633 33.4902 3.8457C34.709 4.45508 35.6465 5.28711 36.3027 6.3418C36.959 7.38477 37.2871 8.56836 37.2871 9.89258C37.2871 11.3105 37.0059 12.6055 36.4434 13.7773C35.8809 14.9492 35.0605 16.1094 33.9824 17.2578C32.916 18.4062 31.627 19.6777 30.1152 21.0723L26.8105 24.1836V24.4297H38.0078V29ZM49.9961 12.582C51.5664 12.582 52.9609 12.8809 54.1797 13.4785C55.4102 14.0762 56.377 14.9551 57.0801 16.1152C57.7832 17.2754 58.1348 18.7051 58.1348 20.4043C58.1348 22.2559 57.748 23.8555 56.9746 25.2031C56.2129 26.5391 55.0703 27.5645 53.5469 28.2793C52.0352 28.9941 50.1484 29.3516 47.8867 29.3516C46.5391 29.3516 45.2676 29.2344 44.0723 29C42.8887 28.7773 41.8516 28.4316 40.9609 27.9629V23.2695C41.8516 23.7383 42.918 24.1367 44.1602 24.4648C45.4141 24.7812 46.5918 24.9395 47.6934 24.9395C48.7715 24.9395 49.6797 24.7988 50.418 24.5176C51.1562 24.2246 51.7129 23.7793 52.0879 23.1816C52.4746 22.5723 52.668 21.7988 52.668 20.8613C52.668 19.6074 52.2461 18.6465 51.4023 17.9785C50.5586 17.3105 49.2637 16.9766 47.5176 16.9766C46.8496 16.9766 46.1523 17.041 45.4258 17.1699C44.7109 17.2988 44.1133 17.4277 43.6328 17.5566L41.4707 16.3965L42.4375 3.30078H56.377V7.90625H47.2012L46.7266 12.9512C47.125 12.8691 47.5586 12.7871 48.0273 12.7051C48.4961 12.623 49.1523 12.582 49.9961 12.582ZM65.3734 0.589062V7.04375C65.3734 7.52891 65.3523 8.07031 65.3102 8.66797C65.275 9.25859 65.2188 9.79648 65.1414 10.2816H65.2258C65.3875 10.0355 65.5914 9.72617 65.8375 9.35352C66.0836 8.98086 66.3051 8.67148 66.502 8.42539L69.1809 5.05039H73.7793L69.6344 10.134L74.043 17H69.3285L66.7129 12.718L65.3734 13.741V17H61.2285V0.589062H65.3734ZM82.4218 7.97187H86.3558V10.7984H82.4218V14.6059H79.5953V10.7984H75.6613V7.97187H79.5953V4.10117H82.4218V7.97187Z" fill="#ACE238"/>
</svg>
