<svg width="17" height="16" viewBox="0 0 17 16" fill="none" xmlns="http://www.w3.org/2000/svg">
<path d="M7.34615 15H9.65385M1 6.4544C1.00062 5.38832 1.26254 4.33768 1.76412 3.38927C2.2657 2.44085 2.99254 1.62188 3.88462 1M16 6.4544C15.9994 5.38832 15.7375 4.33768 15.2359 3.38927C14.7343 2.44085 14.0075 1.62188 13.1154 1M13.1154 6.6C13.1154 5.41183 12.6291 4.27232 11.7636 3.43216C10.898 2.592 9.72408 2.12 8.5 2.12C7.27592 2.12 6.10198 2.592 5.23643 3.43216C4.37088 4.27232 3.88462 5.41183 3.88462 6.6V10.52C3.88462 10.9656 3.70227 11.3929 3.37768 11.7079C3.0531 12.023 2.61287 12.2 2.15385 12.2H14.8462C14.3871 12.2 13.9469 12.023 13.6223 11.7079C13.2977 11.3929 13.1154 10.9656 13.1154 10.52V6.6Z" stroke="#ACE238" stroke-width="1.5" stroke-linecap="round" stroke-linejoin="round"/>
</svg>
