<svg width="25" height="21" viewBox="0 0 25 21" fill="none" xmlns="http://www.w3.org/2000/svg">
<path d="M20.8987 12.2406C20.8987 16.7078 17.2773 20.3292 12.8101 20.3292C8.34292 20.3292 4.72152 16.7078 4.72152 12.2406M20.8987 12.2406C20.8987 7.77334 17.2773 4.15194 12.8101 4.15194C8.34292 4.15194 4.72152 7.77334 4.72152 12.2406M20.8987 12.2406H24.4937M4.72152 12.2406H1.12659M1.12659 18.5317C2.02349 18.5343 2.91034 18.3429 3.72632 17.9706C4.5423 17.5983 5.26809 17.0539 5.85393 16.3747M5.85393 8.10637C5.26809 7.42723 4.5423 6.88284 3.72632 6.51053C2.91034 6.13822 2.02349 5.9468 1.12659 5.94941M24.4937 18.5317C23.5968 18.5343 22.7099 18.3429 21.8939 17.9706C21.078 17.5983 20.3522 17.0539 19.7663 16.3747M19.7663 8.10637C20.3522 7.42723 21.078 6.88284 21.8939 6.51053C22.7099 6.13822 23.5968 5.9468 24.4937 5.94941M15.039 4.45751C15.7268 4.06465 16.2985 3.49696 16.6962 2.81199C17.0939 2.12701 17.3035 1.34908 17.3038 0.557007M8.31646 0.557007C8.31672 1.34908 8.52633 2.12701 8.92405 2.81199C9.32178 3.49696 9.8935 4.06465 10.5813 4.45751M4.91924 10.4431H20.701" stroke="#1D1D1D" stroke-linecap="round" stroke-linejoin="round"/>
</svg>
