<svg width="26" height="25" viewBox="0 0 26 25" fill="none" xmlns="http://www.w3.org/2000/svg">
<path d="M23.0127 9.74686C24.0054 9.74686 24.8101 8.94211 24.8101 7.94939V2.55699C24.8101 1.56428 24.0054 0.759521 23.0127 0.759521H3.24051C2.24779 0.759521 1.44304 1.56428 1.44304 2.55699V7.94939C1.44304 8.94211 2.24779 9.74686 3.24051 9.74686M23.0127 9.74686H3.24051M23.0127 9.74686C23.4894 9.74686 23.9466 9.93624 24.2837 10.2733C24.6208 10.6104 24.8101 11.0676 24.8101 11.5443V16.9367C24.8101 17.4135 24.6208 17.8706 24.2837 18.2077C23.9466 18.5448 23.4894 18.7342 23.0127 18.7342H3.24051C2.76379 18.7342 2.3066 18.5448 1.96951 18.2077C1.63241 17.8706 1.44304 17.4135 1.44304 16.9367V11.5443C1.44304 11.0676 1.63241 10.6104 1.96951 10.2733C2.3066 9.93624 2.76379 9.74686 3.24051 9.74686M11.3291 5.25319H14.9241M11.3291 14.2405H14.9241M13.1266 18.7342V24.1266M4.13924 24.1266H22.1139M6.38608 5.70256C6.1379 5.70256 5.93671 5.50137 5.93671 5.25319C5.93671 5.00501 6.1379 4.80383 6.38608 4.80383C6.63426 4.80383 6.83544 5.00501 6.83544 5.25319C6.83544 5.50137 6.63426 5.70256 6.38608 5.70256ZM6.38608 14.6899C6.1379 14.6899 5.93671 14.4887 5.93671 14.2405C5.93671 13.9924 6.1379 13.7912 6.38608 13.7912C6.63426 13.7912 6.83544 13.9924 6.83544 14.2405C6.83544 14.4887 6.63426 14.6899 6.38608 14.6899Z" stroke="#1D1D1D" stroke-linecap="round" stroke-linejoin="round"/>
</svg>
