<svg width="25" height="25" viewBox="0 0 25 25" fill="none" xmlns="http://www.w3.org/2000/svg">
<path d="M24.1266 12.4431C24.1266 18.8957 18.8957 24.1266 12.443 24.1266M24.1266 12.4431C24.1266 5.99042 18.8957 0.759521 12.443 0.759521M24.1266 12.4431H0.759491M12.443 24.1266C5.99039 24.1266 0.759491 18.8957 0.759491 12.4431M12.443 24.1266C15.1423 20.8073 16.716 16.7156 16.9367 12.4431C16.716 8.1705 15.1423 4.07882 12.443 0.759521M12.443 24.1266C9.74381 20.8073 8.17009 16.7156 7.94936 12.4431C8.17009 8.1705 9.74381 4.07882 12.443 0.759521M0.759491 12.4431C0.759491 5.99042 5.99039 0.759521 12.443 0.759521" stroke="#1D1D1D" stroke-linecap="round" stroke-linejoin="round"/>
</svg>
